<?xml version="1.0" encoding="iso-8859-1"?>
<!-- Uploaded to: SVG Repo, www.svgrepo.com, Generator: SVG Repo Mixer Tools -->
<svg fill="#000000" height="800px" width="800px" version="1.1" id="Layer_1" xmlns="http://www.w3.org/2000/svg" xmlns:xlink="http://www.w3.org/1999/xlink" 
	 viewBox="0 0 512.006 512.006" xml:space="preserve">
<g>
	<g>
		<g>
			<path d="M153.602,0.003H34.135c-3.234,0-6.187,1.826-7.637,4.719c-1.434,2.893-1.126,6.349,0.811,8.934l25.6,34.133
				c1.613,2.15,4.147,3.413,6.827,3.413h8.533v18.944l51.2,12.8V51.203h8.533c2.679,0,5.214-1.263,6.827-3.413l25.6-34.133
				c1.937-2.586,2.244-6.042,0.811-8.934C159.788,1.829,156.836,0.003,153.602,0.003z"/>
			<polygon points="68.268,104.277 119.468,117.077 119.468,100.531 68.268,87.731 			"/>
			<polygon points="68.268,138.411 119.468,151.211 119.468,134.665 68.268,121.865 			"/>
			<polygon points="68.268,172.544 119.468,185.344 119.468,168.798 68.268,155.998 			"/>
			<path d="M68.268,206.677l51.191,12.8c0-0.128,0.008-0.247,0.008-0.375v-16.171l-51.2-12.8V206.677z"/>
			<path d="M85.777,326.969c1.161,3.482,4.42,5.837,8.09,5.837c3.678,0,6.938-2.355,8.09-5.837
				c9.737-29.201,15.394-59.418,16.99-90.044l-50.577-12.638C68.898,259.232,74.709,293.757,85.777,326.969z"/>
			<path d="M315.735,0.003H196.268c-3.234,0-6.187,1.826-7.637,4.719c-1.434,2.893-1.126,6.349,0.811,8.934l25.6,34.133
				c1.613,2.15,4.147,3.413,6.827,3.413h8.533v18.944l51.2,12.8V51.203h8.533c2.68,0,5.214-1.263,6.827-3.413l25.6-34.133
				c1.937-2.586,2.244-6.042,0.811-8.934C321.922,1.829,318.969,0.003,315.735,0.003z"/>
			<polygon points="230.402,172.544 281.602,185.344 281.602,168.798 230.402,155.998 			"/>
			<polygon points="230.402,206.677 281.602,219.477 281.602,202.931 230.402,190.131 			"/>
			<polygon points="230.402,240.811 281.602,253.611 281.602,237.065 230.402,224.265 			"/>
			<polygon points="230.402,138.411 281.602,151.211 281.602,134.665 230.402,121.865 			"/>
			<path d="M230.402,295.903c0,4.42,0.094,8.832,0.265,13.244l49.937,12.484c0.41-5.436,0.657-10.889,0.811-16.35l-51.012-12.757
				V295.903z"/>
			<path d="M247.91,403.769c1.161,3.482,4.42,5.837,8.09,5.837c3.678,0,6.938-2.355,8.09-5.837
				c7.074-21.205,11.989-42.948,14.78-64.99l-46.993-11.75C234.257,353.098,239.59,378.801,247.91,403.769z"/>
			<polygon points="230.402,104.277 281.602,117.077 281.602,100.531 230.402,87.731 			"/>
			<polygon points="230.402,274.944 281.602,287.744 281.602,271.198 230.402,258.398 			"/>
			<path d="M485.502,4.719C484.052,1.826,481.099,0,477.865,0H358.398c-3.226,0-6.178,1.826-7.629,4.719
				c-1.442,2.893-1.135,6.349,0.811,8.934l25.6,34.133c1.604,2.15,4.139,3.413,6.818,3.413h8.533v18.944l51.2,12.8V51.2h8.533
				c2.688,0,5.222-1.263,6.827-3.413l25.6-34.133C486.637,11.068,486.944,7.612,485.502,4.719z"/>
			<polygon points="392.535,240.811 443.735,253.611 443.735,237.065 392.535,224.265 			"/>
			<polygon points="392.535,206.677 443.735,219.477 443.735,202.931 392.535,190.131 			"/>
			<polygon points="392.535,274.944 443.735,287.744 443.735,271.198 392.535,258.398 			"/>
			<polygon points="392.535,343.211 443.735,356.011 443.735,339.465 392.535,326.665 			"/>
			<polygon points="392.535,172.544 443.735,185.344 443.735,168.798 392.535,155.998 			"/>
			<polygon points="392.535,309.077 443.735,321.877 443.735,305.331 392.535,292.531 			"/>
			<polygon points="392.535,104.277 443.735,117.077 443.735,100.531 392.535,87.731 			"/>
			<polygon points="392.535,138.411 443.735,151.211 443.735,134.665 392.535,121.865 			"/>
			<path d="M410.044,506.169c1.161,3.482,4.42,5.837,8.09,5.837c3.678,0,6.938-2.355,8.09-5.837
				c7.074-21.205,11.989-42.948,14.78-64.99l-46.993-11.75C396.39,455.498,401.724,481.201,410.044,506.169z"/>
			<path d="M392.535,398.303c0,4.42,0.094,8.832,0.265,13.244l49.937,12.484c0.41-5.436,0.657-10.889,0.811-16.35l-51.012-12.757
				V398.303z"/>
			<polygon points="392.535,377.344 443.735,390.144 443.735,373.598 392.535,360.798 			"/>
		</g>
	</g>
</g>
</svg>